<svg width="34" height="42" viewBox="0 0 34 42" fill="none" xmlns="http://www.w3.org/2000/svg">
<path d="M33.4194 0.223125C33.5978 0.342923 33.7441 0.504969 33.8454 0.694958C33.9466 0.884947 33.9997 1.09704 34 1.3125V21C33.9999 21.2621 33.9217 21.5182 33.7753 21.7353C33.629 21.9524 33.4212 22.1205 33.1788 22.218L32.6923 21L33.1788 22.218L33.1709 22.2206L33.1552 22.2285L33.0951 22.2521C32.7512 22.3893 32.4051 22.5206 32.0568 22.6459C31.3663 22.8953 30.4065 23.2313 29.3185 23.5646C27.1843 24.2261 24.4042 24.9375 22.2308 24.9375C20.0155 24.9375 18.1822 24.2025 16.5868 23.5594L16.5135 23.5331C14.8554 22.8638 13.4431 22.3125 11.7692 22.3125C9.93846 22.3125 7.48523 22.9163 5.39554 23.5646C4.4599 23.8573 3.5328 24.1768 2.61538 24.5228V40.6875C2.61538 41.0356 2.47761 41.3694 2.23237 41.6156C1.98713 41.8617 1.65451 42 1.30769 42C0.960871 42 0.628254 41.8617 0.383014 41.6156C0.137775 41.3694 0 41.0356 0 40.6875V1.3125C0 0.964403 0.137775 0.630564 0.383014 0.384422C0.628254 0.138281 0.960871 0 1.30769 0C1.65451 0 1.98713 0.138281 2.23237 0.384422C2.47761 0.630564 2.61538 0.964403 2.61538 1.3125V2.05275C3.20646 1.84538 3.91262 1.6065 4.68154 1.37025C6.81569 0.714 9.59846 0 11.7692 0C13.9662 0 15.7551 0.727125 17.3165 1.36238L17.4289 1.40963C19.0557 2.0685 20.4732 2.625 22.2308 2.625C24.0615 2.625 26.5148 2.02125 28.6045 1.37287C29.7953 0.999632 30.9721 0.582854 32.1326 0.123375L32.1823 0.105L32.1928 0.09975H32.1954L33.4194 0.223125ZM31.3846 3.20512C30.8092 3.40987 30.1292 3.6435 29.3812 3.8745C27.2628 4.536 24.4852 5.24738 22.2308 5.24738C19.9135 5.24738 18.0671 4.49662 16.4691 3.84563L16.4482 3.83775C14.8083 3.17625 13.4405 2.625 11.7692 2.625C10.0195 2.625 7.56892 3.22613 5.45308 3.87975C4.49874 4.17528 3.5525 4.49652 2.61538 4.84312V21.7297C3.19077 21.525 3.87077 21.2914 4.61877 21.0604C6.73723 20.3962 9.51477 19.6875 11.7692 19.6875C13.9845 19.6875 15.8178 20.4225 17.4132 21.0656L17.4865 21.0919C19.1446 21.7612 20.5569 22.3125 22.2308 22.3125C23.9778 22.3125 26.4311 21.7114 28.5469 21.0578C29.5012 20.7622 30.4475 20.441 31.3846 20.0944V3.20775V3.20512Z" fill="#EEEEEE"/>
</svg>
