<svg width="109" height="113" viewBox="0 0 109 113" fill="none" xmlns="http://www.w3.org/2000/svg">
<g filter="url(#filter0_dd_5_378)">
<path d="M55 5C45.1109 5 35.444 7.93245 27.2215 13.4265C18.999 18.9206 12.5904 26.7295 8.80605 35.8658C5.02166 45.0021 4.0315 55.0555 5.96076 64.7545C7.89002 74.4536 12.6521 83.3627 19.6447 90.3553C26.6373 97.3479 35.5464 102.11 45.2455 104.039C54.9445 105.968 64.9979 104.978 74.1342 101.194C83.2705 97.4096 91.0794 91.0009 96.5735 82.7785C102.068 74.556 105 64.8891 105 55C104.975 41.747 99.6986 29.044 90.3273 19.6727C80.956 10.3014 68.253 5.02541 55 5ZM72.3077 39.6154C73.4487 39.6154 74.5642 39.9537 75.5129 40.5877C76.4617 41.2216 77.2011 42.1226 77.6378 43.1768C78.0744 44.231 78.1887 45.391 77.9661 46.5101C77.7435 47.6292 77.194 48.6572 76.3872 49.4641C75.5803 50.2709 74.5523 50.8204 73.4332 51.043C72.3141 51.2656 71.1541 51.1513 70.0999 50.7147C69.0457 50.278 68.1447 49.5386 67.5108 48.5898C66.8768 47.6411 66.5385 46.5257 66.5385 45.3846C66.5385 43.8545 67.1463 42.3871 68.2282 41.3051C69.3102 40.2232 70.7776 39.6154 72.3077 39.6154ZM37.6923 39.6154C38.8334 39.6154 39.9488 39.9537 40.8975 40.5877C41.8463 41.2216 42.5857 42.1226 43.0224 43.1768C43.4591 44.231 43.5733 45.391 43.3507 46.5101C43.1281 47.6292 42.5786 48.6572 41.7718 49.4641C40.9649 50.2709 39.937 50.8204 38.8178 51.043C37.6987 51.2656 36.5387 51.1513 35.4845 50.7147C34.4303 50.278 33.5293 49.5386 32.8954 48.5898C32.2615 47.6411 31.9231 46.5257 31.9231 45.3846C31.9231 43.8545 32.5309 42.3871 33.6129 41.3051C34.6948 40.2232 36.1622 39.6154 37.6923 39.6154ZM78.3173 68.4615C75.9545 72.5549 72.5557 75.9542 68.4626 78.3176C64.3695 80.681 59.7264 81.9252 55 81.9252C50.2736 81.9252 45.6305 80.681 41.5374 78.3176C37.4443 75.9542 34.0455 72.5549 31.6827 68.4615C31.3817 68.0248 31.1743 67.5306 31.0734 67.0099C30.9726 66.4892 30.9806 65.9532 31.0968 65.4358C31.213 64.9183 31.4351 64.4304 31.7489 64.0028C32.0627 63.5753 32.4616 63.2172 32.9205 62.9512C33.3793 62.6852 33.8882 62.517 34.4152 62.4571C34.9422 62.3973 35.4759 62.447 35.9828 62.6033C36.4896 62.7596 36.9586 63.019 37.3604 63.3653C37.7621 63.7115 38.088 64.1371 38.3173 64.6154C40.0112 67.5399 42.4441 69.9678 45.3721 71.6556C48.3001 73.3434 51.6204 74.2318 55 74.2318C58.3797 74.2318 61.6999 73.3434 64.6279 71.6556C67.556 69.9678 69.9889 67.5399 71.6827 64.6154C72.2321 63.8183 73.0619 63.2577 74.0065 63.0456C74.951 62.8334 75.9409 62.9852 76.7784 63.4707C77.6159 63.9563 78.2396 64.7398 78.5248 65.6649C78.8101 66.59 78.736 67.5886 78.3173 68.4615Z" fill="#EEEEEE"/>
</g>
<defs>
<filter id="filter0_dd_5_378" x="0" y="0" width="109" height="113" filterUnits="userSpaceOnUse" color-interpolation-filters="sRGB">
<feFlood flood-opacity="0" result="BackgroundImageFix"/>
<feColorMatrix in="SourceAlpha" type="matrix" values="0 0 0 0 0 0 0 0 0 0 0 0 0 0 0 0 0 0 127 0" result="hardAlpha"/>
<feOffset dx="-2" dy="-2"/>
<feGaussianBlur stdDeviation="1.5"/>
<feComposite in2="hardAlpha" operator="out"/>
<feColorMatrix type="matrix" values="0 0 0 0 0.933333 0 0 0 0 0.933333 0 0 0 0 0.933333 0 0 0 0.25 0"/>
<feBlend mode="normal" in2="BackgroundImageFix" result="effect1_dropShadow_5_378"/>
<feColorMatrix in="SourceAlpha" type="matrix" values="0 0 0 0 0 0 0 0 0 0 0 0 0 0 0 0 0 0 127 0" result="hardAlpha"/>
<feOffset dy="4"/>
<feGaussianBlur stdDeviation="2"/>
<feComposite in2="hardAlpha" operator="out"/>
<feColorMatrix type="matrix" values="0 0 0 0 0 0 0 0 0 0 0 0 0 0 0 0 0 0 0.25 0"/>
<feBlend mode="normal" in2="effect1_dropShadow_5_378" result="effect2_dropShadow_5_378"/>
<feBlend mode="normal" in="SourceGraphic" in2="effect2_dropShadow_5_378" result="shape"/>
</filter>
</defs>
</svg>
