<svg width="93" height="139" viewBox="0 0 93 139" fill="none" xmlns="http://www.w3.org/2000/svg">
<g filter="url(#filter0_dd_5_392)">
<path d="M55.3997 122.6H38.5999C37.486 122.6 36.4177 123.043 35.63 123.83C34.8424 124.618 34.3999 125.686 34.3999 126.8C34.3999 127.914 34.8424 128.982 35.63 129.77C36.4177 130.558 37.486 131 38.5999 131H55.3997C56.5136 131 57.5819 130.558 58.3696 129.77C59.1572 128.982 59.5997 127.914 59.5997 126.8C59.5997 125.686 59.1572 124.618 58.3696 123.83C57.5819 123.043 56.5136 122.6 55.3997 122.6ZM59.5997 110H34.3999C33.286 110 32.2177 110.443 31.4301 111.23C30.6424 112.018 30.1999 113.086 30.1999 114.2C30.1999 115.314 30.6424 116.382 31.4301 117.17C32.2177 117.958 33.286 118.4 34.3999 118.4H59.5997C60.7136 118.4 61.7819 117.958 62.5695 117.17C63.3572 116.382 63.7997 115.314 63.7997 114.2C63.7997 113.086 63.3572 112.018 62.5695 111.23C61.7819 110.443 60.7136 110 59.5997 110ZM76.7723 17.2562C68.879 9.35236 58.3056 5.00012 46.9998 5.00012C41.4806 4.98696 36.0132 6.06435 30.9117 8.17038C25.8101 10.2764 21.1749 13.3696 17.2722 17.2723C13.3696 21.175 10.2764 25.8102 8.17036 30.9118C6.06434 36.0134 4.98696 41.4809 5.00012 47.0001C5.00012 59.2378 9.69096 70.6854 17.8625 78.4056L19.007 79.4792C23.7346 83.8997 30.1999 89.9555 30.1999 95.3V101.6C30.1999 102.714 30.6424 103.782 31.4301 104.57C32.2177 105.358 33.286 105.8 34.3999 105.8H40.6998C41.2568 105.8 41.7909 105.579 42.1848 105.185C42.5786 104.791 42.7998 104.257 42.7998 103.7V72.9403C42.8 72.5156 42.6713 72.1009 42.4309 71.7508C42.1905 71.4007 41.8496 71.1318 41.4532 70.9794C39.028 69.99 36.724 68.7261 34.5863 67.2126C34.1059 66.9058 33.6929 66.5044 33.3726 66.033C33.0523 65.5615 32.8313 65.0297 32.7231 64.4701C32.6149 63.9105 32.6217 63.3347 32.7432 62.7778C32.8647 62.2209 33.0982 61.6945 33.4296 61.2308C33.761 60.7671 34.1833 60.3756 34.6708 60.0803C35.1584 59.785 35.7009 59.5921 36.2654 59.5132C36.8299 59.4343 37.4046 59.4711 37.9544 59.6214C38.5042 59.7718 39.0176 60.0324 39.4635 60.3876C41.406 61.7631 45.1466 63.8001 46.9998 63.8001C48.853 63.8001 52.5936 61.7578 54.5414 60.3876C55.4483 59.8174 56.5387 59.6153 57.5897 59.8227C58.6407 60.0301 59.5727 60.6312 60.1951 61.5031C60.8175 62.3749 61.0832 63.4517 60.9379 64.513C60.7926 65.5744 60.2472 66.5401 59.4133 67.2126C57.2752 68.7234 54.9713 69.9846 52.5464 70.9716C52.15 71.1239 51.8091 71.3929 51.5687 71.7429C51.3282 72.093 51.1996 72.5078 51.1998 72.9324V103.7C51.1998 104.257 51.421 104.791 51.8148 105.185C52.2087 105.579 52.7428 105.8 53.2997 105.8H59.5997C60.7136 105.8 61.7819 105.358 62.5695 104.57C63.3572 103.782 63.7997 102.714 63.7997 101.6V95.3C63.7997 90.0815 70.1941 84.0309 74.864 79.6104L76.1528 78.3872C84.558 70.3626 88.9995 59.4977 88.9995 47.0001C89.0273 41.4804 87.961 36.0098 85.8624 30.9046C83.7637 25.7993 80.6742 21.1605 76.7723 17.2562Z" fill="#EEEEEE"/>
</g>
<defs>
<filter id="filter0_dd_5_392" x="0" y="0" width="93" height="139" filterUnits="userSpaceOnUse" color-interpolation-filters="sRGB">
<feFlood flood-opacity="0" result="BackgroundImageFix"/>
<feColorMatrix in="SourceAlpha" type="matrix" values="0 0 0 0 0 0 0 0 0 0 0 0 0 0 0 0 0 0 127 0" result="hardAlpha"/>
<feOffset dx="-2" dy="-2"/>
<feGaussianBlur stdDeviation="1.5"/>
<feComposite in2="hardAlpha" operator="out"/>
<feColorMatrix type="matrix" values="0 0 0 0 0.933333 0 0 0 0 0.933333 0 0 0 0 0.933333 0 0 0 0.25 0"/>
<feBlend mode="normal" in2="BackgroundImageFix" result="effect1_dropShadow_5_392"/>
<feColorMatrix in="SourceAlpha" type="matrix" values="0 0 0 0 0 0 0 0 0 0 0 0 0 0 0 0 0 0 127 0" result="hardAlpha"/>
<feOffset dy="4"/>
<feGaussianBlur stdDeviation="2"/>
<feComposite in2="hardAlpha" operator="out"/>
<feColorMatrix type="matrix" values="0 0 0 0 0 0 0 0 0 0 0 0 0 0 0 0 0 0 0.25 0"/>
<feBlend mode="normal" in2="effect1_dropShadow_5_392" result="effect2_dropShadow_5_392"/>
<feBlend mode="normal" in="SourceGraphic" in2="effect2_dropShadow_5_392" result="shape"/>
</filter>
</defs>
</svg>
