<svg width="40" height="60" viewBox="0 0 40 60" fill="none" xmlns="http://www.w3.org/2000/svg">
<g filter="url(#filter0_dd_5_512)">
<path d="M23.5999 48.8667H17.3999C16.9889 48.8667 16.5946 49.0317 16.3039 49.3255C16.0133 49.6193 15.85 50.0178 15.85 50.4333C15.85 50.8488 16.0133 51.2473 16.3039 51.5411C16.5946 51.8349 16.9889 52 17.3999 52H23.5999C24.011 52 24.4052 51.8349 24.6959 51.5411C24.9866 51.2473 25.1499 50.8488 25.1499 50.4333C25.1499 50.0178 24.9866 49.6193 24.6959 49.3255C24.4052 49.0317 24.011 48.8667 23.5999 48.8667ZM25.1499 44.1667H15.85C15.4389 44.1667 15.0446 44.3317 14.754 44.6255C14.4633 44.9193 14.3 45.3178 14.3 45.7333C14.3 46.1488 14.4633 46.5473 14.754 46.8411C15.0446 47.1349 15.4389 47.3 15.85 47.3H25.1499C25.561 47.3 25.9552 47.1349 26.2459 46.8411C26.5366 46.5473 26.6999 46.1488 26.6999 45.7333C26.6999 45.3178 26.5366 44.9193 26.2459 44.6255C25.9552 44.3317 25.561 44.1667 25.1499 44.1667ZM31.4874 9.57177C28.5744 6.6235 24.6723 5.00004 20.4999 5.00004C18.4631 4.99514 16.4454 5.39702 14.5626 6.1826C12.6799 6.96819 10.9693 8.122 9.52903 9.57776C8.08876 11.0335 6.94724 12.7625 6.17001 14.6655C5.39279 16.5685 4.99519 18.6079 5.00004 20.6667C5.00004 25.2316 6.73119 29.5017 9.74688 32.3814L10.1693 32.7819C11.914 34.4308 14.3 36.6898 14.3 38.6833V41.0333C14.3 41.4488 14.4633 41.8473 14.754 42.1411C15.0446 42.435 15.4389 42.6 15.85 42.6H18.1749C18.3805 42.6 18.5776 42.5175 18.7229 42.3706C18.8683 42.2237 18.9499 42.0244 18.9499 41.8167V30.3428C18.95 30.1844 18.9025 30.0297 18.8138 29.8991C18.7251 29.7685 18.5993 29.6682 18.453 29.6114C17.5579 29.2423 16.7077 28.7709 15.9187 28.2063C15.7415 28.0918 15.5891 27.9421 15.4709 27.7663C15.3526 27.5904 15.2711 27.392 15.2312 27.1833C15.1912 26.9746 15.1937 26.7598 15.2386 26.552C15.2834 26.3443 15.3696 26.148 15.4919 25.975C15.6142 25.802 15.77 25.656 15.95 25.5458C16.1299 25.4357 16.3301 25.3637 16.5384 25.3343C16.7468 25.3049 16.9588 25.3186 17.1617 25.3747C17.3646 25.4307 17.5541 25.528 17.7187 25.6604C18.4355 26.1735 19.816 26.9334 20.4999 26.9334C21.1839 26.9334 22.5643 26.1716 23.2831 25.6604C23.6178 25.4478 24.0203 25.3724 24.4081 25.4497C24.796 25.5271 25.1399 25.7513 25.3696 26.0765C25.5993 26.4018 25.6974 26.8034 25.6437 27.1993C25.5901 27.5952 25.3888 27.9554 25.0811 28.2063C24.292 28.7698 23.4418 29.2403 22.5469 29.6084C22.4006 29.6653 22.2748 29.7656 22.1861 29.8962C22.0973 30.0268 22.0499 30.1815 22.0499 30.3399V41.8167C22.0499 42.0244 22.1316 42.2237 22.2769 42.3706C22.4222 42.5175 22.6194 42.6 22.8249 42.6H25.1499C25.561 42.6 25.9552 42.435 26.2459 42.1411C26.5366 41.8473 26.6999 41.4488 26.6999 41.0333V38.6833C26.6999 36.7368 29.0597 34.4798 30.7831 32.8309L31.2588 32.3746C34.3607 29.3813 35.9998 25.3285 35.9998 20.6667C36.0101 18.6078 35.6166 16.5672 34.8421 14.6628C34.0675 12.7585 32.9274 11.0281 31.4874 9.57177Z" fill="#EEEEEE"/>
</g>
<defs>
<filter id="filter0_dd_5_512" x="0" y="0" width="40" height="60" filterUnits="userSpaceOnUse" color-interpolation-filters="sRGB">
<feFlood flood-opacity="0" result="BackgroundImageFix"/>
<feColorMatrix in="SourceAlpha" type="matrix" values="0 0 0 0 0 0 0 0 0 0 0 0 0 0 0 0 0 0 127 0" result="hardAlpha"/>
<feOffset dx="-2" dy="-2"/>
<feGaussianBlur stdDeviation="1.5"/>
<feComposite in2="hardAlpha" operator="out"/>
<feColorMatrix type="matrix" values="0 0 0 0 0.933333 0 0 0 0 0.933333 0 0 0 0 0.933333 0 0 0 0.25 0"/>
<feBlend mode="normal" in2="BackgroundImageFix" result="effect1_dropShadow_5_512"/>
<feColorMatrix in="SourceAlpha" type="matrix" values="0 0 0 0 0 0 0 0 0 0 0 0 0 0 0 0 0 0 127 0" result="hardAlpha"/>
<feOffset dy="4"/>
<feGaussianBlur stdDeviation="2"/>
<feComposite in2="hardAlpha" operator="out"/>
<feColorMatrix type="matrix" values="0 0 0 0 0 0 0 0 0 0 0 0 0 0 0 0 0 0 0.25 0"/>
<feBlend mode="normal" in2="effect1_dropShadow_5_512" result="effect2_dropShadow_5_512"/>
<feBlend mode="normal" in="SourceGraphic" in2="effect2_dropShadow_5_512" result="shape"/>
</filter>
</defs>
</svg>
