<svg width="109" height="113" viewBox="0 0 109 113" fill="none" xmlns="http://www.w3.org/2000/svg">
<g filter="url(#filter0_dd_5_380)">
<path d="M55 5C45.1109 5 35.444 7.93245 27.2215 13.4265C18.999 18.9206 12.5904 26.7295 8.80605 35.8658C5.02166 45.0021 4.0315 55.0555 5.96076 64.7545C7.89002 74.4536 12.6521 83.3627 19.6447 90.3553C26.6373 97.3479 35.5464 102.11 45.2455 104.039C54.9445 105.968 64.9979 104.978 74.1342 101.194C83.2705 97.4096 91.0794 91.0009 96.5735 82.7785C102.068 74.556 105 64.8891 105 55C104.975 41.747 99.6986 29.044 90.3273 19.6727C80.956 10.3014 68.253 5.02541 55 5ZM72.3077 39.6154C73.4487 39.6154 74.5642 39.9537 75.5129 40.5877C76.4617 41.2216 77.2011 42.1226 77.6378 43.1768C78.0744 44.231 78.1887 45.391 77.9661 46.5101C77.7435 47.6292 77.194 48.6572 76.3872 49.4641C75.5803 50.2709 74.5523 50.8204 73.4332 51.043C72.3141 51.2656 71.1541 51.1513 70.0999 50.7147C69.0457 50.278 68.1447 49.5386 67.5108 48.5898C66.8768 47.6411 66.5385 46.5257 66.5385 45.3846C66.5385 43.8545 67.1463 42.3871 68.2282 41.3051C69.3102 40.2232 70.7776 39.6154 72.3077 39.6154ZM37.6923 39.6154C38.8334 39.6154 39.9488 39.9537 40.8975 40.5877C41.8463 41.2216 42.5857 42.1226 43.0224 43.1768C43.4591 44.231 43.5733 45.391 43.3507 46.5101C43.1281 47.6292 42.5786 48.6572 41.7718 49.4641C40.9649 50.2709 39.937 50.8204 38.8178 51.043C37.6987 51.2656 36.5387 51.1513 35.4845 50.7147C34.4303 50.278 33.5293 49.5386 32.8954 48.5898C32.2615 47.6411 31.9231 46.5257 31.9231 45.3846C31.9231 43.8545 32.5309 42.3871 33.6129 41.3051C34.6948 40.2232 36.1622 39.6154 37.6923 39.6154ZM76.9231 81.3942C76.3435 81.7454 75.6777 81.9285 75 81.9231C74.3242 81.9359 73.6577 81.7635 73.073 81.4245C72.4882 81.0855 72.0074 80.5928 71.6827 80C69.9889 77.0755 67.556 74.6476 64.6279 72.9598C61.6999 71.272 58.3797 70.3835 55 70.3835C51.6204 70.3835 48.3001 71.272 45.3721 72.9598C42.4441 74.6476 40.0112 77.0755 38.3173 80C38.088 80.4782 37.7621 80.9038 37.3604 81.2501C36.9586 81.5963 36.4896 81.8558 35.9828 82.012C35.4759 82.1683 34.9422 82.2181 34.4152 82.1582C33.8882 82.0983 33.3793 81.9301 32.9205 81.6641C32.4616 81.3981 32.0627 81.0401 31.7489 80.6125C31.4351 80.185 31.213 79.6971 31.0968 79.1796C30.9806 78.6621 30.9726 78.1262 31.0734 77.6055C31.1743 77.0847 31.3817 76.5905 31.6827 76.1538C34.0455 72.0604 37.4443 68.6612 41.5374 66.2978C45.6305 63.9344 50.2736 62.6901 55 62.6901C59.7264 62.6901 64.3695 63.9344 68.4626 66.2978C72.5557 68.6612 75.9545 72.0604 78.3173 76.1538C78.8242 77.0344 78.9621 78.0797 78.7008 79.0615C78.4396 80.0434 77.8005 80.882 76.9231 81.3942Z" fill="#EEEEEE"/>
</g>
<defs>
<filter id="filter0_dd_5_380" x="0" y="0" width="109" height="113" filterUnits="userSpaceOnUse" color-interpolation-filters="sRGB">
<feFlood flood-opacity="0" result="BackgroundImageFix"/>
<feColorMatrix in="SourceAlpha" type="matrix" values="0 0 0 0 0 0 0 0 0 0 0 0 0 0 0 0 0 0 127 0" result="hardAlpha"/>
<feOffset dx="-2" dy="-2"/>
<feGaussianBlur stdDeviation="1.5"/>
<feComposite in2="hardAlpha" operator="out"/>
<feColorMatrix type="matrix" values="0 0 0 0 0.933333 0 0 0 0 0.933333 0 0 0 0 0.933333 0 0 0 0.25 0"/>
<feBlend mode="normal" in2="BackgroundImageFix" result="effect1_dropShadow_5_380"/>
<feColorMatrix in="SourceAlpha" type="matrix" values="0 0 0 0 0 0 0 0 0 0 0 0 0 0 0 0 0 0 127 0" result="hardAlpha"/>
<feOffset dy="4"/>
<feGaussianBlur stdDeviation="2"/>
<feComposite in2="hardAlpha" operator="out"/>
<feColorMatrix type="matrix" values="0 0 0 0 0 0 0 0 0 0 0 0 0 0 0 0 0 0 0.25 0"/>
<feBlend mode="normal" in2="effect1_dropShadow_5_380" result="effect2_dropShadow_5_380"/>
<feBlend mode="normal" in="SourceGraphic" in2="effect2_dropShadow_5_380" result="shape"/>
</filter>
</defs>
</svg>
